<?xml version="1.0" standalone="no"?>
<!DOCTYPE svg PUBLIC "-//W3C//DTD SVG 20010904//EN"
 "http://www.w3.org/TR/2001/REC-SVG-20010904/DTD/svg10.dtd">
<svg version="1.0" xmlns="http://www.w3.org/2000/svg"
 width="364.000000pt" height="334.000000pt" viewBox="0 0 364.000000 334.000000"
 preserveAspectRatio="xMidYMid meet">
<metadata>
Created by potrace 1.15, written by Peter Selinger 2001-2017
</metadata>
<g transform="translate(0.000000,334.000000) scale(0.100000,-0.100000)"
fill="#000000" stroke="none">
<path d="M1683 3129 c-403 -36 -780 -261 -1006 -600 -240 -361 -295 -799 -152
-1213 66 -188 178 -367 318 -507 161 -160 293 -221 477 -222 159 -1 274 37
400 132 157 118 230 317 189 513 -15 72 -71 192 -116 245 l-36 45 154 154 c85
85 157 154 162 154 35 0 153 -138 193 -224 40 -88 34 -195 -15 -265 l-19 -26
101 -84 100 -83 18 23 c34 44 77 134 89 187 7 29 12 89 12 135 0 210 -116 392
-388 611 -137 109 -190 186 -201 289 -18 174 140 306 352 295 67 -4 90 -10
145 -39 142 -75 307 -287 384 -493 88 -233 88 -539 0 -772 -138 -370 -480
-647 -871 -704 -71 -11 -88 -17 -140 -56 -75 -57 -219 -128 -308 -152 l-70
-19 40 -11 c137 -37 373 -47 515 -23 371 63 701 265 906 554 169 238 255 506
255 797 -1 375 -138 705 -406 972 -101 101 -168 145 -277 180 -112 36 -263 39
-370 9 -267 -76 -430 -290 -415 -541 8 -144 61 -262 168 -375 l49 -52 -155
-152 c-120 -118 -159 -151 -173 -146 -11 3 -58 45 -106 92 -154 154 -194 281
-131 409 17 32 31 62 33 65 3 7 -176 159 -187 159 -24 0 -94 -119 -117 -197
-24 -83 -21 -211 6 -298 48 -153 134 -262 336 -432 66 -55 135 -118 153 -140
105 -126 107 -276 5 -377 -66 -66 -135 -90 -259 -91 -91 0 -106 3 -159 29
-115 56 -279 252 -362 431 -126 273 -126 636 -1 907 160 347 473 581 852 638
58 9 87 18 105 35 76 70 248 155 363 178 l62 13 -80 17 c-79 17 -256 38 -305
35 -14 0 -66 -4 -117 -9z"/>
</g>
</svg>
